<?xml version="1.0" encoding="UTF-8"?><svg id="Layer_2" xmlns="http://www.w3.org/2000/svg" width="485.89" height="327.45" viewBox="0 0 485.89 327.45"><defs><style>.cls-1{fill:#f05472;}.cls-2{fill:#fbfbfb;}.cls-3{fill:#fbcdc9;}.cls-4{fill:#7dcbf0;}.cls-5{fill:#2a426e;}</style></defs><g id="Layer_1-2"><g><path class="cls-5" d="M313.26,199.81c14.27,9.35,27.87,19.19,41.75,28.62,12.09,8.21,25.09,14.86,38.46,20.77,16.64,7.36,33.68,13.63,50.91,19.49,9.58,3.26,18.97,7.11,28.43,10.72,1.27,.49,2.49,1.11,4.58,2.04-10.04,4.99-19.62,1.87-29.19,2.01,5.06,2.61,10.17,5.14,15.18,7.86,6.9,3.74,14.38,6.31,21,10.59,.61,.4,1.76,.58,1.47,1.58-.27,.94-1.33,.6-2.08,.64-12.6,.71-25.01-.75-37.32-3.29-25.38-5.24-50.09-12.83-74.43-21.56-17.12-6.14-33.91-13.17-50.94-19.58-6.03-2.27-12.39-3.69-18.45-5.9-3.73-1.36-7.39-1.99-11.32-1.86-12.65,.43-25.02-1.41-37.03-5.26-14.71-4.71-27.51-12.37-36.49-25.37-.99-1.44-2.32-2.13-3.87-2.54-16.19-4.23-31.66-10.57-47.34-16.3-5.67-2.07-11.56-1.72-17.39-1.32-9.21,.64-18.26,.12-27.1-2.72-.87-.28-1.69-.37-2.62-.2-10.41,1.87-20.95,1.97-31.47,2.37-6.86,.26-13.72,.35-20.58,.33-2.28,0-2.22,.83-1.54,2.46,2.93,7.06,5.8,14.16,8.73,21.22,5.86,14.11,11.63,28.26,17.25,42.47,2.56,6.47,5.2,12.83,6.26,19.78,1.72,11.21-1.58,20.79-9.11,28.99-10.35,11.26-23.29,13.34-37.68,10.41-8.8-1.79-16.33-5.84-22.2-12.47-6.84-7.73-9.95-17.08-8.38-27.33,2-13.06,6.17-25.65,9.62-38.39,3.57-13.23,7.32-26.42,10.96-39.64,.66-2.38,2.63-5.16,1.55-7.03-1.09-1.9-4.38-.6-6.69-.74-9.91-.58-19.82-1.14-29.68-2.4-1.92-.24-3.73-.79-5.23-1.99-1.51-1.22-1.96-2.46,.32-3.55,8.89-4.26,18.13-7.66,27.49-10.71,16.83-5.48,33.96-9.89,51.28-13.46,11.08-2.29,22.26-4.16,33.36-6.4,2.75-.56,4.45-1.64,5.66-4.43,6.69-15.35,22.53-23.53,40.27-20.73,11.44,1.81,21.06,6.93,27.49,17.01,3.37,5.28,4.45,11.21,4.69,17.32,.06,1.53,.45,2.39,1.97,2.79,8.4,2.26,16.97,3.15,25.64,3.17,1.99,0,1.27-1.4,1-2.32-1.85-6.33-4.65-12.26-8.14-17.84-2.84-4.54-6.13-8.81-8.8-13.44-7.03-12.18-11-25.14-10.02-39.45,.98-14.39,6.16-27.09,13.99-39.04,7.06-10.78,16.75-18.78,26.82-26.35,12.7-9.56,24.32-20.02,32.74-33.69,4.28-6.95,11.86-6.85,16.42,.26,3.35,5.22,5.77,10.85,6.17,17.2,.17,2.76,.83,5.48,1.18,8.23,.14,1.12,.9,1.68,1.62,2.37,2.79,2.66,5.46,5.39,7.83,8.5,5.63,7.4,6.2,15.65,5.04,24.35-.13,.95-1.07,2.04-.27,2.79,.95,.9,1.98-.36,2.99-.48,8.11-.99,15.55-4.03,22.85-7.46,10.75-5.04,20.69-11.35,29.5-19.38,2.49-2.27,4.92-4.64,7.89-6.3,3.31-1.85,6.45-1.53,9.42,.82,6.96,5.5,8.86,13.01,8.04,21.32-.89,8.97-4.44,17.05-9.43,24.5-.82,1.23-1.4,2.28-.87,3.82,4.97,14.39,.08,26.87-7.65,38.77-1.19,1.83-2.39,3.64-3.9,5.25-1.31,1.39-1.89,3.14-2.17,5.1-1.04,7.09-2.31,14.09-6.4,20.27-2.86,4.32-6.59,7.65-10.73,10.62-.72,.51-1.51,.86-1.75,1.89-3.37,15.01-13.33,24.36-26.64,30.8-.89,.43-1.78,.88-2.86,1.42Zm-21.93-147.84c-.14-1.55-1.14-2.71-1.81-4.02-.69-1.34-1.3-1.55-2.18-.04-1.09,1.88-2.36,3.67-3.63,5.43-4.01,5.55-9.57,9.4-14.88,13.52-4.65,1.9-8.8,4.86-13.75,6.13-6.22,1.6-12.52,1.73-19.43,1.78,1.29-1.22,2.13-2.03,2.97-2.83,4.85-1.75,9.71-3.55,14.06-6.35,6.29-4.06,11.75-9.11,16.71-14.72,7.4-8.37,9.7-17.96,7.15-28.78-.09-1.74-.47-3.93-2.03-4.3-1.66-.4-2.51,1.78-3.52,3.09-2.33,3.02-4.46,6.27-7.19,8.91-7.48,7.25-15.82,13.5-24.04,19.89-4.31,3.35-8.78,6.51-12.68,10.35-9.54,9.42-16.05,20.59-19.69,33.5-3.63,12.87-2.82,25.28,2.99,37.4,5.38,11.24,13.39,20.88,19.13,31.89,1.43,4.27,2.85,8.55,4.28,12.82,.21,.64,.31,1.42,1.31,1.18,5.02-.44,9.73-1.99,14.27-4.06,5.12-2.34,6.62-6.19,4.76-11.49-.47-1.33-1.12-2.53-1.86-3.72-2.34-3.81-5.13-7.44-6.84-11.51-8.99-21.39-3.1-41.83,15.04-57.23,6.26-5.31,13.44-9.43,21.05-12.25,8.62-3.2,12.75-17.09,10.01-23.98-.07-.2-.13-.4-.2-.6Zm-65.37,157.23c.12,1.45,.94,2.61,1.68,3.77,6.16,9.6,14.83,16.08,25.34,20.28,15.53,6.21,31.73,7.54,48.23,6.47,7.1-.46,14.25-.76,21.11-2.99,5.26-1.09,10.29-2.72,14.9-5.75-.33-.36-.49-.62-.73-.77-10.8-7.32-21.68-14.52-32.35-22.01-2.59-1.82-4.86-2.51-7.94-1.77-6.09,1.46-12.22,1.18-18.18-.76-1.35-.44-4.08-.46-2.48-3.34,.5-.06,.86-.31,1.03-.8l.17-.11c3.61-1.31,7.23-2.61,10.84-3.92,11.97-4.32,23.61-9.31,33.67-17.33,2.89-2.3,5.1-5.14,6.6-8.91-2.51,.12-4.65,.23-6.79,.33-3.24-.37-6.53-.51-9.71-1.17-6.4-1.32-11.93-4.14-15.19-10.21,.88,.16,1.79,.21,2.62,.5,11.29,3.92,22.18,3.08,32.94-2.16,9.03-4.39,15.05-10.78,15.92-21.18,.92-2.54,.08-3.18-2.36-2.23-1.01,.39-2.08,.6-3.12,.91-10.91,3.29-20.89,1.47-29.9-5.48-3.07-2.36-2.67-4.49,1.04-6.28,1.18,1.76,3.01,2.41,4.91,3.08,5.79,2.03,11.62,1.26,17.25-.22,11.26-2.97,21.69-7.41,27.08-18.86,2-4.25,3.37-8.68,3.11-13.97-2.01,1.69-3.58,3.01-5.15,4.34-3.44,.93-6.16,3.4-9.63,4.36-7.84,2.19-15.66,1.55-23.48,.21-1.6-.27-4.03,.04-4.28-2.29-.24-2.23,1.86-3.02,3.54-3.86,.26-.13,.56-.2,.84-.29,10.38,1.88,18.86-2.59,26.74-8.39,10.04-7.39,15.38-17.98,18.92-29.6,.93-3.04,1.41-6.18-.15-9.24-.61-2.24-1.98-2.07-3.28-.8-3.48,3.42-7.47,6.14-11.36,9.04-12.08,9-25.24,15.74-39.65,20-10.43,3.08-21.13,5.23-31.36,9.06-11.23,4.21-21.09,10.11-27.95,20.26-6.9,10.22-9.09,21.04-4.13,32.72,2.53,5.95,6.24,11.29,9.42,16.9,5.84,10.32,.11,19.78-7.64,24.74-10.02,6.41-21.51,7.2-32.95,7.75-13.07,.62-25.95-1.08-38.67-4.02-1.29-.04-1.97-1.19-3.04-1.68-1.08-.49-2.66-.47-2.87-2.17-.31-2.47-1.63-4.63-3.26-6.19-2.27-2.18-1.06-3.42,.47-4.91,.82-.8,2.18-1.31,1.67-2.83-1.14-3.35-1.59-6.93-4.13-9.77-5.13-5.73-11.63-8.57-19.11-9.2-13.34-1.12-23.19,7.74-26.41,19.16-1.59,5.65-.76,11.66-.87,17.52-.02,.98,.38,1.42,1.27,1.68,2.57,.74,5.12,1.55,7.68,2.33,4.44,1.15,8.93,.51,13.31-.04,7.57-.95,14.72,.05,21.85,2.74,15.11,5.69,30.1,11.75,45.85,15.57,2.69,.65,5.54,.57,8.1,1.79ZM42.81,309.3c-4.62-10.01-4.22-20.16-1.83-30.43,.93-4,2.49-7.75,4.7-11.22,.36-.57,.67-1.25,1.56-1.15,.74,.08,.67,.61,.62,1.08-.38,3.54,.33,7.24-.22,10.6-1.68,10.32,.18,19.83,5.41,28.57,3.94,6.58,7.44,9.46,15.12,8.1,9.18-1.63,17.87-12.34,17.97-21.65,.08-7.36-2.59-14-5.29-20.61-3.75-9.16-7.9-18.16-11.59-27.34-4.47-11.16-8.63-22.44-12.95-33.65-.32-.84-.27-2-1.66-2.37-.61,1.37-1.37,2.68-1.78,4.09-2.99,10.36-6.28,20.63-8.95,31.09-3.34,13.06-6.97,26.05-8.58,39.47-.84,6.95-1.05,13.95,2.51,20.37,1.14,2.05,2.23,4.36,4.96,5.06Zm1.54-120.11c.45,.58,1.09,.33,1.62,.33,15.71,.1,31.43,.5,47.14-.27,7.14-.35,14.27-.9,21.34-2.01,.86-.14,2.15,.21,2.04-1.45-.21-3.27-.37-6.54-.5-9.81-.06-1.53-.58-2.03-2.23-1.77-23.01,3.54-45.66,8.79-68.27,14.21-.43,.1-1.01,.14-1.15,.77Zm388.33,89.32c-.29-1.27-1.16-1.39-1.85-1.68-4.1-1.69-8.19-3.4-12.32-5-8.05-3.12-16.16-6.07-24.18-9.26-11.81-4.69-23.11-10.51-34.49-16.12-4.54-2.23-8.93-4.77-13.34-7.24-2.86-1.6-3.52,1.25-4.49,2.49-.98,1.24,1.03,1.47,1.82,1.94,14.28,8.57,29.71,14.66,45.26,20.36,14.3,5.24,28.9,9.66,43.61,14.52Z"/><path class="cls-2" d="M313.31,124.3c-3.71,1.78-4.11,3.91-1.04,6.28,9.01,6.95,18.99,8.77,29.9,5.48,1.04-.31,2.12-.52,3.12-.91,2.44-.95,3.28-.31,2.36,2.23-1.39,.54-1.89,1.99-2.95,2.86-10.84,8.89-22.94,14.33-37.29,14.12-4.92-.07-9.67-.75-14.34-2.18-1.06-.33-2.34-.65-1.58,1.08,1.12,2.57,1.78,5.54,4.68,6.95,3.26,6.07,8.79,8.89,15.19,10.21,3.18,.66,6.47,.79,9.71,1.17-3.8,4.39-8.82,7.12-14.05,9.14-8.66,3.34-17.09,6.85-23.56,13.85-2.17,2.35-5.5,3.56-6.72,6.84,0,0-.17,.11-.18,.12-.56-.01-.89,.27-1.03,.8-1.6,2.88,1.13,2.91,2.48,3.34,5.96,1.93,12.09,2.22,18.18,.76,3.08-.74,5.35-.05,7.94,1.77,10.68,7.49,21.55,14.69,32.35,22.01,.23,.16,.4,.42,.73,.77-4.61,3.03-9.64,4.66-14.9,5.75-.62-1.58,1.3-3.87-.53-4.72-1.55-.71-3.7-.09-5.59-.05-.19,0-.38,.15-.57,.17-6.69,.7-13.28,2.12-20.07,2.1-6.86-.01-13.69-.24-20.47-1.26-9.31-1.41-18.6-2.8-26.98-7.68-6.59-3.84-13.11-7.71-18.82-12.8-1.08-.96-2.43-1.81-2.7-3.45,1.37-2.32,.35-3.13-1.99-3.5-9.33-1.48-18.37-4.12-27.29-7.18-8.15-2.79-15.84-6.8-24.19-9.05-4.28-1.16-8.43-3.42-12.99-2.68-7.72,1.25-15.43,2.42-23.27,2.51-2.56-.78-5.11-1.59-7.68-2.33-.9-.26-1.29-.71-1.27-1.68,.1-5.85-.73-11.86,.87-17.52,3.22-11.42,13.07-20.28,26.41-19.16,7.48,.63,13.97,3.47,19.11,9.2,2.54,2.84,2.99,6.42,4.13,9.77,.52,1.52-.85,2.03-1.67,2.83-1.53,1.49-2.74,2.73-.47,4.91,1.63,1.57,2.95,3.73,3.26,6.19,.21,1.69,1.8,1.68,2.87,2.17,1.07,.49,1.75,1.64,3.04,1.68,.05,1.54,1.28,1.88,2.38,2.3,8.78,3.33,17.87,5.24,27.24,5.41,11.41,.2,22.77-.29,33.86-3.49,6.69-1.93,13.26-4.31,17.54-9.98,5.61-7.42,6.02-15.77,2.21-24.21-2.52-5.59-6.08-10.72-7.5-16.8-.92-3.92-2.91-7.74-2.04-11.89,3.49-16.65,14.68-26.54,29.72-32.57,8.26-3.31,17.12-4.85,25.74-7.04,10.96-2.78,21.76-6.09,31.8-11.44,7.32-3.9,14.98-7.35,20.49-13.94,.51-.62,1.13-1.13,1.99-1.2-.06,.29-.06,.62-.2,.86-6.23,10.61-14.55,19.17-25.05,25.6-5.39,3.3-10.75,6.63-16.13,9.95-.28,.1-.58,.16-.84,.29-1.69,.84-3.79,1.64-3.54,3.86,.25,2.33,2.69,2.02,4.28,2.29,7.82,1.35,15.65,1.98,23.48-.21,3.47-.97,6.18-3.43,9.63-4.36-.5,5.78-4.28,9.69-8.52,12.64-7.69,5.37-16.44,8.63-25.62,10.75-4.33,1-8.89,.47-13.06,2.24Zm-160.69,34.49c-4.72,0-9.21,1.34-13.69,2.61-.93,.26-1.82,.82-2.58,1.43-1.05,.82-1.94,2.01-1.33,3.33,.63,1.36,1.99,.55,2.92,.24,1.9-.63,2.66-.3,2.67,1.89,0,3.87,.29,7.73,.46,11.6,.04,.92-.2,2.51,1.37,1.77,3.24-1.51,6.79-1.02,10.09-1.95,2.15-.6,2.88-2.37,2.81-4.35-.07-2.18-1.62-3-3.64-3.12-1.39-.08-2.77-.17-4.15-.29-2.25-.2-3-1.54-1.98-3.6,.85-1.71,2.39-2.68,4.14-3.18,2.38-.67,4.79-1.3,7.33-.8,.82,.16,1.87,.55,2.39-.5,.42-.85,.13-1.79-.3-2.58-1.45-2.66-3.99-2.57-6.52-2.5Z"/><path class="cls-1" d="M42.81,309.3c-2.73-.7-3.82-3.01-4.96-5.06-3.55-6.41-3.34-13.42-2.51-20.37,1.61-13.42,5.24-26.41,8.58-39.47,2.68-10.46,5.97-20.73,8.95-31.09,.41-1.41,1.17-2.71,1.78-4.09,1.38,.37,1.33,1.54,1.66,2.37,4.32,11.21,8.48,22.5,12.95,33.65,3.68,9.19,7.84,18.18,11.59,27.34,2.7,6.6,5.37,13.25,5.29,20.61-.1,9.32-8.78,20.02-17.97,21.65-7.69,1.37-11.19-1.52-15.12-8.1-5.24-8.75-7.1-18.26-5.41-28.57,.55-3.35-.16-7.05,.22-10.6,.05-.47,.12-1-.62-1.08-.89-.1-1.2,.58-1.56,1.15-2.21,3.47-3.78,7.22-4.7,11.22-2.38,10.27-2.78,20.42,1.83,30.43Z"/><path class="cls-2" d="M235.09,176.81c-1,.23-1.1-.54-1.31-1.18-1.43-4.27-2.85-8.55-4.28-12.82,.38-1.29-.34-2.3-.82-3.39-2.05-4.63-4.87-8.86-6.84-13.54-2.83-6.71-6.23-13.17-7.73-20.4-1.97-9.51-1.61-18.88,.95-28.24,2.22-8.1,5.45-15.74,9.92-22.84,5.64-8.96,14.42-14.66,22.53-20.96,7.07-5.48,14.18-10.89,20.11-17.6,2.56-2.9,5.49-5.78,6.02-9.99,1.13,1.7,.79,3.19-.23,4.91-6.96,11.82-15.22,22.56-25.28,31.94-3.23,3.01-6.89,5.6-9.53,9.23-.84,.8-1.69,1.61-2.97,2.83,6.9-.05,13.21-.18,19.43-1.78,4.95-1.27,9.1-4.23,13.75-6.13,5.43,.54,9.05-2.94,13.06-5.71,2.91-2.01,4.77-5.28,8.19-6.63-1.24,4.01-3.83,7.22-6.9,9.8-4.69,3.95-9.68,7.58-14.73,11.09-11.68,8.12-22.27,17.09-28.97,30.13-4.51,8.79-6,17.78-4.63,27.36,1.34,9.34,6.04,17.35,10.53,25.41,1.02,1.83,2.04,3.65,2.6,5.67,1.16,4.21-.93,7.44-5.15,8.34-2.19,.46-4.36,.29-6.53,.31-1.6,.01-2.24,.55-1.69,2.16,.22,.65,.33,1.33,.49,2Z"/><path class="cls-3" d="M368.88,60.38c-.86,.07-1.48,.58-1.99,1.2-5.51,6.58-13.16,10.03-20.49,13.94-10.04,5.35-20.84,8.65-31.8,11.44-8.63,2.19-17.48,3.73-25.74,7.04-15.04,6.03-26.23,15.91-29.72,32.57-.87,4.15,1.12,7.97,2.04,11.89,1.42,6.08,4.98,11.21,7.5,16.8,3.81,8.44,3.4,16.79-2.21,24.21-4.28,5.67-10.85,8.05-17.54,9.98-11.09,3.2-22.45,3.69-33.86,3.49-9.37-.17-18.47-2.08-27.24-5.41-1.1-.42-2.34-.76-2.38-2.3,12.72,2.95,25.6,4.65,38.67,4.02,11.43-.54,22.93-1.34,32.95-7.75,7.75-4.96,13.48-14.42,7.64-24.74-3.18-5.61-6.88-10.95-9.42-16.9-4.97-11.67-2.78-22.5,4.13-32.72,6.86-10.15,16.72-16.05,27.95-20.26,10.24-3.84,20.93-5.98,31.36-9.06,14.4-4.25,27.57-11,39.65-20,3.9-2.9,7.89-5.62,11.36-9.04,1.3-1.28,2.67-1.44,3.28,.8-1.34,2.68-1.29,5.84-2.91,8.42-.2,.24-.41,.49-.61,.73l.03-.03c-.62,.3-.64,.85-.62,1.42l-.02,.26Z"/><path class="cls-3" d="M273.65,25.86c-.53,4.21-3.46,7.09-6.02,9.99-5.93,6.71-13.04,12.12-20.11,17.6-8.11,6.29-16.89,12-22.53,20.96-4.47,7.1-7.71,14.74-9.92,22.84-2.56,9.36-2.92,18.73-.95,28.24,1.5,7.23,4.9,13.69,7.73,20.4,1.97,4.68,4.79,8.91,6.84,13.54,.48,1.08,1.19,2.1,.82,3.39-5.74-11.01-13.74-20.65-19.13-31.89-5.8-12.12-6.61-24.53-2.99-37.4,3.64-12.91,10.15-24.09,19.69-33.5,3.9-3.85,8.37-7,12.68-10.35,8.22-6.39,16.56-12.64,24.04-19.89,2.72-2.64,4.85-5.89,7.19-8.91,1.01-1.31,1.86-3.48,3.52-3.09,1.56,.37,1.94,2.56,2.03,4.3-1.73,.67-2.95,1.73-2.89,3.77Z"/><path class="cls-4" d="M235.09,176.81c-.16-.67-.27-1.35-.49-2-.55-1.61,.1-2.15,1.69-2.16,2.18-.01,4.35,.16,6.53-.31,4.23-.9,6.32-4.13,5.15-8.34-.56-2.02-1.58-3.84-2.6-5.67-4.49-8.06-9.19-16.07-10.53-25.41-1.37-9.58,.12-18.57,4.63-27.36,6.69-13.04,17.29-22.01,28.97-30.13,5.04-3.51,10.03-7.14,14.73-11.09,3.07-2.59,5.66-5.79,6.9-9.8h-.06c.2-.2,.41-.42,.61-.63l-.02,.04c.31-.46,.62-.92,.93-1.38,2.74,6.9-1.39,20.79-10.02,23.98-7.61,2.82-14.79,6.94-21.05,12.25-18.15,15.4-24.04,35.84-15.04,57.23,1.71,4.08,4.5,7.71,6.84,11.51,.73,1.19,1.39,2.39,1.86,3.72,1.86,5.3,.36,9.15-4.76,11.49-4.53,2.07-9.25,3.62-14.27,4.06Z"/><path class="cls-1" d="M44.34,189.2c.14-.63,.71-.66,1.15-.77,22.61-5.43,45.26-10.67,68.27-14.21,1.65-.25,2.17,.25,2.23,1.77,.13,3.27,.29,6.54,.5,9.81,.1,1.66-1.18,1.32-2.04,1.45-7.07,1.11-14.2,1.67-21.34,2.01-15.71,.77-31.42,.36-47.14,.27-.53,0-1.17,.24-1.62-.33Z"/><path class="cls-3" d="M226.58,209.04c.28,1.63,1.62,2.49,2.7,3.45,5.71,5.09,12.24,8.96,18.82,12.8,8.38,4.88,17.67,6.27,26.98,7.68,6.78,1.02,13.61,1.25,20.47,1.26,6.79,.01,13.38-1.4,20.07-2.1,.19-.02,.38-.17,.57-.17,1.89-.04,4.05-.66,5.59,.05,1.83,.84-.09,3.14,.53,4.72-6.86,2.24-14,2.53-21.11,2.99-16.5,1.08-32.7-.26-48.23-6.47-10.5-4.2-19.17-10.68-25.34-20.28-.74-1.16-1.56-2.32-1.68-3.77,.21-.05,.41-.11,.62-.16Z"/><path class="cls-4" d="M296.17,160.21c-2.9-1.41-3.56-4.38-4.68-6.95-.75-1.73,.52-1.4,1.58-1.08,4.67,1.44,9.42,2.11,14.34,2.18,14.34,.21,26.45-5.23,37.29-14.12,1.06-.87,1.56-2.33,2.95-2.86-.87,10.39-6.89,16.78-15.92,21.18-10.76,5.23-21.65,6.07-32.94,2.16-.83-.29-1.75-.34-2.62-.5Z"/><path class="cls-4" d="M313.31,124.3c4.17-1.77,8.74-1.24,13.06-2.24,9.18-2.12,17.93-5.38,25.62-10.75,4.23-2.95,8.02-6.86,8.52-12.64,1.57-1.32,3.14-2.65,5.15-4.34,.26,5.28-1.11,9.72-3.11,13.97-5.39,11.44-15.83,15.89-27.08,18.86-5.63,1.49-11.46,2.25-17.25,.22-1.9-.66-3.73-1.32-4.91-3.08Z"/><path class="cls-4" d="M273.65,25.86c-.06-2.04,1.15-3.1,2.89-3.77,2.55,10.82,.25,20.41-7.15,28.78-4.96,5.61-10.42,10.66-16.71,14.72-4.35,2.81-9.2,4.6-14.06,6.35,2.64-3.62,6.3-6.21,9.53-9.23,10.05-9.38,18.32-20.13,25.28-31.94,1.02-1.73,1.35-3.22,.23-4.91Z"/><path class="cls-4" d="M370.09,58c1.62-2.58,1.57-5.74,2.91-8.42,1.56,3.05,1.08,6.2,.15,9.23-3.55,11.61-8.88,22.21-18.92,29.6-7.87,5.79-16.36,10.26-26.74,8.39,5.37-3.32,10.74-6.65,16.13-9.95,10.5-6.43,18.82-15,25.05-25.6,.14-.24,.14-.57,.2-.86,0,0,.02-.26,.02-.27,.44-.38,.68-.83,.62-1.42,0,0-.03,.03-.03,.03,.2-.24,.41-.49,.61-.73Z"/><path class="cls-4" d="M276.74,201.41c1.22-3.29,4.55-4.5,6.72-6.84,6.47-7,14.9-10.51,23.56-13.85,5.22-2.01,10.25-4.74,14.05-9.14,2.14-.1,4.28-.21,6.79-.33-1.51,3.77-3.71,6.61-6.6,8.91-10.06,8.02-21.7,13-33.67,17.33-3.61,1.3-7.23,2.61-10.84,3.92Z"/><path class="cls-1" d="M432.67,278.52c-14.71-4.86-29.31-9.28-43.61-14.52-15.55-5.7-30.98-11.79-45.26-20.36-.79-.47-2.8-.69-1.82-1.94,.97-1.24,1.64-4.09,4.49-2.49,4.41,2.48,8.8,5.01,13.34,7.24,11.39,5.6,22.68,11.43,34.49,16.12,8.02,3.19,16.13,6.14,24.18,9.26,4.13,1.6,8.22,3.31,12.32,5,.69,.29,1.56,.41,1.85,1.68Z"/><path class="cls-4" d="M226.58,209.04c-.21,.05-.41,.11-.62,.16-2.56-1.22-5.41-1.13-8.1-1.79-15.75-3.82-30.74-9.88-45.85-15.57-7.13-2.68-14.27-3.68-21.85-2.74-4.39,.55-8.88,1.18-13.31,.04,7.84-.1,15.55-1.26,23.27-2.51,4.56-.74,8.71,1.53,12.99,2.68,8.35,2.25,16.05,6.26,24.19,9.05,8.91,3.06,17.96,5.69,27.29,7.18,2.34,.37,3.35,1.18,1.99,3.5Z"/><path class="cls-3" d="M290.07,54.54c-3.42,1.35-5.27,4.62-8.19,6.63-4.01,2.77-7.63,6.24-13.06,5.71,5.31-4.12,10.87-7.98,14.88-13.52,1.28-1.76,2.54-3.55,3.63-5.43,.88-1.51,1.49-1.31,2.18,.04,.67,1.31,1.67,2.47,1.81,4.02-.72,.48-.77,1.21-.73,1.97,0,0,.02-.04,.02-.04-.2,.21-.41,.43-.61,.64h.06Z"/><path class="cls-2" d="M290.6,53.95c-.04-.76,0-1.49,.73-1.97,.07,.2,.13,.4,.2,.6-.31,.46-.62,.92-.93,1.38Z"/><path class="cls-4" d="M275.54,202.32c.14-.53,.47-.81,1.03-.8-.17,.49-.52,.74-1.03,.8Z"/><path class="cls-5" d="M152.62,158.79c2.53-.06,5.07-.16,6.52,2.5,.43,.79,.72,1.73,.3,2.58-.52,1.06-1.56,.67-2.39,.5-2.54-.5-4.95,.13-7.33,.8-1.75,.49-3.29,1.47-4.14,3.18-1.03,2.06-.28,3.39,1.98,3.6,1.38,.13,2.77,.21,4.15,.29,2.02,.12,3.56,.93,3.64,3.12,.07,1.98-.66,3.75-2.81,4.35-3.3,.93-6.85,.44-10.09,1.95-1.57,.73-1.33-.85-1.37-1.77-.18-3.87-.46-7.73-.46-11.6,0-2.19-.77-2.53-2.67-1.89-.93,.31-2.29,1.12-2.92-.24-.61-1.32,.28-2.51,1.33-3.33,.77-.6,1.66-1.16,2.58-1.43,4.48-1.28,8.96-2.61,13.69-2.61Z"/><path class="cls-2" d="M369.51,58.7c.07,.59-.18,1.05-.62,1.42-.03-.57,0-1.13,.62-1.42Z"/><path class="cls-2" d="M370.09,58c-.2,.24-.4,.49-.61,.73,.2-.24,.4-.49,.61-.73Z"/><path class="cls-2" d="M290.01,54.55c.2-.21,.41-.43,.61-.64-.2,.21-.41,.43-.61,.64Z"/></g></g></svg>